<svg xmlns="http://www.w3.org/2000/svg" xmlns:xlink="http://www.w3.org/1999/xlink" aria-hidden="true" role="img" class="iconify iconify--fluent" width="32" height="32" preserveAspectRatio="xMidYMid meet" viewBox="0 0 20 20"><path fill="currentColor" d="M13.5 13a.5.5 0 0 0 0 1h2a.5.5 0 0 0 0-1h-2ZM2 6.5A2.5 2.5 0 0 1 4.5 4h11A2.5 2.5 0 0 1 18 6.5v7a2.5 2.5 0 0 1-2.5 2.5h-11A2.5 2.5 0 0 1 2 13.5v-7Zm1 7A1.5 1.5 0 0 0 4.5 15h11a1.5 1.5 0 0 0 1.5-1.5V9H3v4.5Zm14-7A1.5 1.5 0 0 0 15.5 5h-11A1.5 1.5 0 0 0 3 6.5V8h14V6.5Z"></path></svg>